<svg width="40" height="40" viewBox="0 0 40 40" fill="none" xmlns="http://www.w3.org/2000/svg">
<rect width="40" height="40" rx="20" fill="#478CCF"/>
<path d="M15.8141 9.49121H25.0541C28.5741 9.49121 31.4341 12.3512 31.4341 15.8712V25.1112C31.4341 26.8033 30.7619 28.4261 29.5654 29.6226C28.3689 30.819 26.7462 31.4912 25.0541 31.4912H15.8141C12.2941 31.4912 9.43408 28.6312 9.43408 25.1112V15.8712C9.43408 14.1791 10.1063 12.5564 11.3027 11.3599C12.4992 10.1634 14.122 9.49121 15.8141 9.49121ZM15.5941 11.6912C14.5438 11.6912 13.5366 12.1084 12.7939 12.8511C12.0513 13.5937 11.6341 14.601 11.6341 15.6512V25.3312C11.6341 27.5202 13.4051 29.2912 15.5941 29.2912H25.2741C26.3243 29.2912 27.3316 28.874 28.0742 28.1314C28.8169 27.3887 29.2341 26.3815 29.2341 25.3312V15.6512C29.2341 13.4622 27.4631 11.6912 25.2741 11.6912H15.5941ZM26.2091 13.3412C26.5738 13.3412 26.9235 13.4861 27.1814 13.7439C27.4392 14.0018 27.5841 14.3515 27.5841 14.7162C27.5841 15.0809 27.4392 15.4306 27.1814 15.6885C26.9235 15.9463 26.5738 16.0912 26.2091 16.0912C25.8444 16.0912 25.4947 15.9463 25.2368 15.6885C24.9789 15.4306 24.8341 15.0809 24.8341 14.7162C24.8341 14.3515 24.9789 14.0018 25.2368 13.7439C25.4947 13.4861 25.8444 13.3412 26.2091 13.3412ZM20.4341 14.9912C21.8928 14.9912 23.2917 15.5707 24.3232 16.6021C25.3546 17.6336 25.9341 19.0325 25.9341 20.4912C25.9341 21.9499 25.3546 23.3488 24.3232 24.3803C23.2917 25.4117 21.8928 25.9912 20.4341 25.9912C18.9754 25.9912 17.5764 25.4117 16.545 24.3803C15.5135 23.3488 14.9341 21.9499 14.9341 20.4912C14.9341 19.0325 15.5135 17.6336 16.545 16.6021C17.5764 15.5707 18.9754 14.9912 20.4341 14.9912ZM20.4341 17.1912C19.5589 17.1912 18.7195 17.5389 18.1006 18.1578C17.4818 18.7766 17.1341 19.616 17.1341 20.4912C17.1341 21.3664 17.4818 22.2058 18.1006 22.8247C18.7195 23.4435 19.5589 23.7912 20.4341 23.7912C21.3093 23.7912 22.1487 23.4435 22.7675 22.8247C23.3864 22.2058 23.7341 21.3664 23.7341 20.4912C23.7341 19.616 23.3864 18.7766 22.7675 18.1578C22.1487 17.5389 21.3093 17.1912 20.4341 17.1912Z" fill="white"/>
</svg>
