<svg width="40" height="40" viewBox="0 0 40 40" fill="none" xmlns="http://www.w3.org/2000/svg">
<rect width="40" height="40" rx="20" fill="#478CCF"/>
<path d="M30.9974 22.4881V31H26.283V23.058C26.283 21.0624 25.6009 19.7012 23.895 19.7012C22.5924 19.7012 21.8166 20.6194 21.4761 21.5065C21.3516 21.8237 21.3196 22.2655 21.3196 22.7096V31H16.603C16.603 31 16.6669 17.5499 16.603 16.1553H21.3196V18.2593L21.2887 18.3078H21.3196V18.2593C21.9455 17.25 23.0641 15.8069 25.5689 15.8069C28.6711 15.8069 30.9974 17.9294 30.9974 22.4881ZM11.6704 9C10.0582 9 9.00244 10.1074 9.00244 11.5643C9.00244 12.9889 10.0273 14.1297 11.6087 14.1297H11.6395C13.2848 14.1297 14.3064 12.9889 14.3064 11.5643C14.2778 10.1074 13.2848 9 11.6704 9ZM9.28235 31H13.9967V16.1553H9.28235V31Z" fill="white"/>
</svg>
